<?xml version="1.0" encoding="UTF-8" standalone="no"?>
<!-- Created with Inkscape (http://www.inkscape.org/) -->

<svg
   xmlns:dc="http://purl.org/dc/elements/1.1/"
   xmlns:cc="http://creativecommons.org/ns#"
   xmlns:rdf="http://www.w3.org/1999/02/22-rdf-syntax-ns#"
   xmlns:svg="http://www.w3.org/2000/svg"
   xmlns="http://www.w3.org/2000/svg"
   xmlns:sodipodi="http://sodipodi.sourceforge.net/DTD/sodipodi-0.dtd"
   xmlns:inkscape="http://www.inkscape.org/namespaces/inkscape"
   width="744.09448819"
   height="1052.3622047"
   id="svg2"
   version="1.1"
   inkscape:version="0.48.3.1 r9886"
   sodipodi:docname="New document 1">
  <defs
     id="defs4" />
  <sodipodi:namedview
     id="base"
     pagecolor="#ffffff"
     bordercolor="#666666"
     borderopacity="1.0"
     inkscape:pageopacity="0.0"
     inkscape:pageshadow="2"
     inkscape:zoom="0.5"
     inkscape:cx="452.61117"
     inkscape:cy="637.26499"
     inkscape:document-units="px"
     inkscape:current-layer="layer1"
     showgrid="false"
     inkscape:window-width="1855"
     inkscape:window-height="1056"
     inkscape:window-x="65"
     inkscape:window-y="24"
     inkscape:window-maximized="1" />
  <metadata
     id="metadata7">
    <rdf:RDF>
      <cc:Work
         rdf:about="">
        <dc:format>image/svg+xml</dc:format>
        <dc:type
           rdf:resource="http://purl.org/dc/dcmitype/StillImage" />
        <dc:title></dc:title>
      </cc:Work>
    </rdf:RDF>
  </metadata>
  <g
     inkscape:label="Layer 1"
     inkscape:groupmode="layer"
     id="layer1">
    <path
       style="fill:#000000"
       d="m 213.78569,502.83159 c 0,-1.2864 19.98633,-1.46938 160.5,-1.46938 141.19918,0 160.5,0.17838 160.5,1.48335 0,1.30502 -19.29454,1.48167 -160.5,1.46938 -140.50733,-0.0122 -160.5,-0.197 -160.5,-1.48335 z m 0,-102.46938 0,-100 160,0 160,0 0,100 0,100 -160,0 -160,0 0,-100 z m 145.4398,29.89149 c 3.33311,-0.60968 9.6602,-1.9323 14.0602,-2.93914 4.4,-1.00684 12.05,-2.56541 17,-3.46348 4.95,-0.89807 9.79515,-1.85821 10.76699,-2.13364 2.95335,-0.83702 4.82563,-7.25026 5.79653,-19.85523 1.26663,-16.44452 2.78788,-34.6496 3.57313,-42.7604 0.5621,-5.80601 0.3869,-7.05632 -1.24107,-8.85652 -1.80688,-1.99804 -2.52732,-2.06562 -15.39558,-1.44421 -24.06972,1.16233 -41.15346,2.57289 -42.97631,3.54845 -1.95669,1.04719 -2.07234,2.23328 -3.95035,40.51268 -0.53966,11 -1.2832,23.46635 -1.6523,27.703 -0.3691,4.23665 -0.40395,8.39915 -0.0774,9.25 0.71667,1.8676 5.47422,2.0156 14.09621,0.43849 z m 6.3102,-12.46346 c -2.19189,-1.18913 -2.75,-2.20211 -2.75,-4.99135 0,-2.46014 -0.51974,-3.66005 -1.75,-4.04022 -4.38537,-1.35512 -4.74436,-2.04016 -5.44507,-10.39064 -0.66133,-7.88107 -0.57043,-8.44671 1.87205,-11.64897 2.26911,-2.97495 3.04636,-3.33614 6.69508,-3.11126 3.78534,0.23329 4.12794,0.0507 4.12794,-2.20051 0,-1.79453 -0.67251,-2.61367 -2.5,-3.04508 -2.1995,-0.51923 -2.5,-1.12023 -2.5,-5 0,-3.88125 0.29966,-4.47991 2.5,-4.99446 1.78806,-0.41814 2.59012,-1.35661 2.81646,-3.29547 0.35836,-3.06977 2.81623,-4.72296 8.68354,-5.84063 2.2,-0.41908 5.22919,-1.06201 6.73152,-1.42875 3.89744,-0.95139 7.21242,0.13219 11.25014,3.67735 4.45839,3.91452 4.58508,7.26464 0.4705,12.44216 -2.4619,3.09789 -2.99058,4.61424 -2.75,7.8875 0.29453,4.00723 0.34571,4.05575 4.60231,4.36246 2.36746,0.17059 4.51008,0.84597 4.76138,1.50084 0.2513,0.65488 -0.33571,3.66531 -1.30447,6.68985 -1.35979,4.24536 -2.21737,5.49915 -3.76138,5.49915 -1.52816,0 -1.9456,-0.5898 -1.76941,-2.5 0.12682,-1.375 0.35182,-3.83764 0.5,-5.47254 0.31526,-3.4784 -2.32485,-4.637 -5.05499,-2.21835 -0.92158,0.81643 -2.5756,1.64725 -3.6756,1.84628 -1.59699,0.28895 -2.05517,1.2669 -2.27377,4.85324 -0.15058,2.47025 -0.67829,5.39137 -1.17268,6.49137 -0.4944,1.1 -1.13677,4.69 -1.42749,7.97777 -0.35997,4.07107 -1.08353,6.38357 -2.26845,7.25 -2.3544,1.72158 -11.21694,1.53973 -14.60761,-0.29974 z m 7.71959,-11.37882 c 0.91299,-1.47725 -3.14703,-12.51349 -4.72342,-12.83956 -0.77204,-0.15969 -2.60577,0.16667 -4.07494,0.72525 -3.12745,1.18905 -3.46301,3.92586 -1.15781,9.44298 1.37512,3.29112 1.87233,3.62212 5.44098,3.62212 2.16016,0 4.192,-0.42786 4.51519,-0.95079 z m 4.35876,-15.56069 c 0.19322,-1.09369 1.26518,-2.70641 2.38214,-3.58384 1.84281,-1.44761 1.91269,-1.92202 0.75484,-5.12401 -1.5523,-4.29282 -0.84403,-6.51786 2.21331,-6.95311 3.13682,-0.44656 3.25964,-2.74244 0.33691,-6.29768 l -2.44171,-2.97011 -4.28692,1.55777 c -4.86981,1.76958 -5.94752,4.46222 -3.36405,8.40509 1.78844,2.7295 2.0638,6.05856 0.57713,6.97737 -1.13052,0.6987 -1.37553,8.79114 -0.29876,9.8679 1.27678,1.27679 3.77009,0.1414 4.12711,-1.87938 z m 156.17165,-118.98852 0,-27.5 -160,0 -160,0 0,-14 0,-14 160.5,0 160.5,0 0,41.5 c 0,22.825 -0.225,41.5 -0.5,41.5 -0.275,0 -0.5,-12.375 -0.5,-27.5 z m -151.2,-34.7 c 0.66,-0.66 1.2,-3.16351 1.2,-5.56336 0,-4.32037 -0.032,-4.36027 -3.25,-4.05 -2.85971,0.27573 -3.28771,0.70468 -3.564,3.57191 -0.2533,2.62868 0.1333,3.43794 2,4.18661 l 2.314,0.92807 -2.25,0.0634 c -1.2375,0.0349 -2.25,0.51338 -2.25,1.06338 0,1.40089 4.34908,1.25092 5.8,-0.2 z m -3.26878,-5.09313 c -0.42806,-0.98622 -0.4977,-2.07372 -0.15476,-2.41666 1.01549,-1.0155 1.83409,0.41094 1.3667,2.38152 -0.41435,1.74694 -0.46826,1.74851 -1.21194,0.0351 z m -151.82203,2.66899 c -0.34328,-0.34328 0.36922,-1.49719 1.58333,-2.56426 1.5435,-1.35655 1.82962,-2.09686 0.95125,-2.46126 -0.69093,-0.28664 -0.98837,-0.95458 -0.66097,-1.48431 0.37111,-0.60047 1.09303,-0.55003 1.9172,0.13397 0.92989,0.77174 1.51713,0.7813 1.98007,0.0322 0.36197,-0.58568 1.12508,-0.77628 1.69579,-0.42356 0.67002,0.4141 0.55697,0.95852 -0.3191,1.53663 -1.08411,0.7154 -0.91316,1.2682 0.85071,2.75086 1.21412,1.02055 2.11412,2.02929 2,2.24166 -0.11411,0.21235 0.35503,-0.26779 1.04253,-1.067 0.6875,-0.7992 1.25,-2.28754 1.25,-3.30742 0,-2.70718 -4.49799,-6.76342 -7.5,-6.76342 -2.8783,0 -7.5,4.01797 -7.5,6.52029 0,1.87217 1.77875,5.47971 2.70185,5.47971 0.34732,0 0.35062,-0.28086 0.007,-0.62414 z m 3.84466,-0.46299 c 0.48382,-0.78285 0.97617,-0.78285 1.75902,0 1.65343,1.65343 3.10683,1.29776 1.68713,-0.41287 -0.68469,-0.825 -1.80969,-1.5 -2.5,-1.5 -0.69031,0 -1.81531,0.675 -2.5,1.5 -0.78502,0.94589 -0.85205,1.5 -0.18146,1.5 0.58488,0 1.36577,-0.48921 1.73531,-1.08713 z m 48.44615,-1.41287 c 0,-1.375 -0.45,-2.5 -1,-2.5 -0.55,0 -1,0.675 -1,1.5 0,2.01487 -2.6259,1.91728 -3.41026,-0.12675 -0.78975,-2.05804 1.08048,-4.37325 3.53271,-4.37325 1.03265,0 1.87755,-0.45 1.87755,-1 0,-1.40664 -5.35074,-1.24926 -6.8,0.2 -0.66,0.66 -1.2,2.37 -1.2,3.8 0,3.36113 1.70442,5 5.2,5 2.32,0 2.8,-0.42857 2.8,-2.5 z m 4,-0.5 c 0,-2 0.5,-3 1.5,-3 0.825,0 1.5,-0.45 1.5,-1 0,-0.55 -1.125,-1 -2.5,-1 -2.25,0 -2.5,0.4 -2.5,4 0,2.2 0.45,4 1,4 0.55,0 1,-1.35 1,-3 z m 10,2.07332 c 0,-0.50967 -0.7875,-1.13247 -1.75,-1.38399 -1.27829,-0.33406 -1.12476,-0.4886 0.56955,-0.57333 1.80823,-0.0904 2.24911,-0.61199 2,-2.366 -0.25029,-1.76232 -0.96979,-2.25 -3.31955,-2.25 -2.37782,0 -3.06825,0.48172 -3.32908,2.32273 -0.181,1.2775 -0.0826,2.965 0.21861,3.75 0.59774,1.55767 5.61047,2.00494 5.61047,0.50059 z m 9,0 c 0,-0.50967 -0.7875,-1.13247 -1.75,-1.38399 -1.27829,-0.33406 -1.12476,-0.4886 0.56955,-0.57333 1.80823,-0.0904 2.24911,-0.61199 2,-2.366 -0.25029,-1.76232 -0.96979,-2.25 -3.31955,-2.25 -2.37782,0 -3.06825,0.48172 -3.32908,2.32273 -0.181,1.2775 -0.0826,2.965 0.21861,3.75 0.59774,1.55767 5.61047,2.00494 5.61047,0.50059 z m 5,-2.07332 c 0,-1.65 0.45,-3 1,-3 0.55,0 1,1.35 1,3 0,2 0.5,3 1.5,3 0.9198,0 1.5,-0.93536 1.5,-2.41821 0,-4.14931 -1.054,-5.58179 -4.10699,-5.58179 -2.70851,0 -2.89301,0.25509 -2.89301,4 0,2.2 0.45,4 1,4 0.55,0 1,-1.35 1,-3 z m 9,-1.5 c 0,-2.475 0.0337,-4.82625 0.075,-5.225 0.0412,-0.39875 -0.40875,-0.88625 -1,-1.08333 -0.68109,-0.22703 -1.075,1.68753 -1.075,5.225 0,3.07083 0.45,5.58333 1,5.58333 0.55,0 1,-2.025 1,-4.5 z m 4,1.5 c 0,-2 0.5,-3 1.5,-3 2.11227,0 1.87895,-1.97488 -0.25,-2.116 -1.66667,-0.11048 -1.66667,-0.13778 0,-0.57333 2.56735,-0.67091 2.13692,-2.50472 -0.5,-2.13022 -1.96016,0.27839 -2.28894,0.99585 -2.55226,5.56955 -0.18416,3.19866 0.10889,5.25 0.75,5.25 0.57874,0 1.05226,-1.35 1.05226,-3 z m 6.82948,-2.16668 c -0.47158,-7.39503 -2.82948,-7.74224 -2.82948,-0.41665 0,4.42116 0.32877,5.58333 1.57948,5.58333 1.27802,0 1.51659,-0.98613 1.25,-5.16668 z m 7.17052,4.24 c 0,-0.50967 -0.7875,-1.13247 -1.75,-1.38399 -1.27829,-0.33406 -1.12476,-0.4886 0.56955,-0.57333 1.80823,-0.0904 2.24911,-0.61199 2,-2.366 -0.25029,-1.76232 -0.96979,-2.25 -3.31955,-2.25 -2.37782,0 -3.06825,0.48172 -3.32908,2.32273 -0.181,1.2775 -0.0826,2.965 0.21861,3.75 0.59774,1.55767 5.61047,2.00494 5.61047,0.50059 z m 10,-4.57332 c 0,-4.22222 -0.34848,-5.5 -1.5,-5.5 -0.825,0 -1.5,0.62252 -1.5,1.38337 0,0.76085 -0.9,1.61872 -2,1.90638 -1.42534,0.37273 -2,1.36402 -2,3.44996 0,3.64237 0.60434,4.26029 4.16667,4.26029 2.76767,0 2.83333,-0.12745 2.83333,-5.5 z m -4.46878,2.20687 c -0.42806,-0.98622 -0.4977,-2.07372 -0.15476,-2.41666 1.01549,-1.0155 1.83409,0.41094 1.3667,2.38152 -0.41435,1.74694 -0.46826,1.74851 -1.21194,0.0351 z m 13.46878,-1.70687 c 0,-3.77778 -0.36667,-5 -1.5,-5 -1.13333,0 -1.5,1.22222 -1.5,5 0,3.77778 0.36667,5 1.5,5 1.13333,0 1.5,-1.22222 1.5,-5 z m 4,2 c 0,-1.65 0.45,-3 1,-3 0.55,0 1,1.35 1,3 0,4.31496 2.94673,4.08184 3.16004,-0.25 l 0.16003,-3.25 0.40333,3.25 c 0.47716,3.84506 3.2766,4.55572 3.2766,0.83179 0,-4.74394 -0.91668,-5.58179 -6.10699,-5.58179 l -4.89301,0 0,4 c 0,2.2 0.45,4 1,4 0.55,0 1,-1.35 1,-3 z m 16.81037,-0.75 c -0.26946,-3.25568 -0.67287,-3.79171 -3.06037,-4.06642 -1.5125,-0.17404 -2.75,0.16346 -2.75,0.75 0,0.58653 1.0125,1.11862 2.25,1.18242 2.04259,0.10531 2.06563,0.16207 0.25,0.61568 -4.46049,1.11441 -3.9343,5.26832 0.66735,5.26832 2.8013,0 2.9374,-0.1931 2.64302,-3.75 z m 17.18963,2.82332 c 0,-0.50967 -0.7875,-1.13247 -1.75,-1.38399 -1.27829,-0.33406 -1.12476,-0.4886 0.56955,-0.57333 1.80823,-0.0904 2.24911,-0.61199 2,-2.366 -0.25029,-1.76232 -0.96979,-2.25 -3.31955,-2.25 -2.37782,0 -3.06825,0.48172 -3.32908,2.32273 -0.181,1.2775 -0.0826,2.965 0.21861,3.75 0.59774,1.55767 5.61047,2.00494 5.61047,0.50059 z m -139.23834,-2.7604 c -0.95609,-0.25029 -2.75609,-0.25937 -4,-0.0202 -1.24391,0.23919 -0.46166,0.44398 1.73834,0.45508 2.2,0.0111 3.21775,-0.18461 2.26166,-0.4349 z m -2.26166,-2.31292 c 1.99732,0 4.54448,0.48862 5.66037,1.08583 1.82874,0.97871 1.95964,0.8554 1.32693,-1.25 -1.10729,-3.68466 -3.17736,-5.23583 -6.9873,-5.23583 -3.80994,0 -5.88001,1.55117 -6.98731,5.23583 -0.6327,2.1054 -0.5018,2.22871 1.32694,1.25 1.11589,-0.59721 3.66305,-1.08583 5.66037,-1.08583 z m -27.53121,49.8879 2.46878,-0.98532 -2.45993,-1.22641 c -4.22212,-2.10495 -3.39124,-7.67617 1.1448,-7.67617 1.58093,0 1.87756,0.77303 1.87756,4.89301 0,4.81458 -1.0101,6.22384 -4.33179,6.0436 -0.64251,-0.0349 -0.0573,-0.50678 1.30058,-1.04871 z m 2.03121,-5.8879 c 0,-2.02733 -0.49651,-3 -1.53138,-3 -1.80787,0 -2.92129,2.37799 -2.10699,4.5 1.06629,2.7787 3.63837,1.71831 3.63837,-1.5 z m 3.66667,3.33333 c -0.36667,-0.36666 -0.60331,-2.95416 -0.52587,-5.75 l 0.1408,-5.08333 0.6992,5.5 c 0.74824,5.88571 0.71987,6.36734 -0.31413,5.33333 z m 29.53333,-14.53333 c -3.10965,-3.10965 0.0247,-10.51822 3.3,-7.8 2.54466,2.11188 1.39664,9 -1.5,9 -0.33,0 -1.14,-0.54 -1.8,-1.2 z m 3.3,-3.88333 c 0,-2.37037 -0.45935,-3.41667 -1.5,-3.41667 -1.60103,0 -2.53827,3.65492 -1.57856,6.15588 1.0143,2.64322 3.07856,0.8065 3.07856,-2.73921 z"
       id="path3066"
       inkscape:connector-curvature="0" />
  </g>
</svg>
